<svg width="56" height="56" viewbox="0 0 56 56" fill="none" xmlns="http://www.w3.org/2000/svg">
<path d="M28.1968 23.0405V8.43115C28.1968 7.29155 27.7441 6.19862 26.9383 5.3928C26.1325 4.58698 25.0395 4.13428 23.8999 4.13428C22.7603 4.13428 21.6674 4.58698 20.8616 5.3928C20.0558 6.19862 19.6031 7.29155 19.6031 8.43115V34.4844L14.8921 26.3247C14.6102 25.8356 14.2347 25.4067 13.787 25.0628C13.3393 24.7188 12.8282 24.4664 12.2829 24.3201C11.7376 24.1737 11.1689 24.1363 10.6091 24.2098C10.0493 24.2834 9.50957 24.4666 9.02063 24.7489C8.53169 25.0312 8.10318 25.407 7.75958 25.855C7.41598 26.303 7.16403 26.8143 7.01814 27.3597C6.87225 27.9051 6.83526 28.4739 6.90931 29.0336C6.98335 29.5933 7.16697 30.1329 7.44966 30.6216C14.4468 45.3843 18.7044 50.5405 28.1968 50.5405C30.4539 50.5405 32.6889 50.096 34.7742 49.2322C36.8595 48.3685 38.7542 47.1024 40.3502 45.5064C41.9462 43.9104 43.2122 42.0157 44.076 39.9304C44.9397 37.8451 45.3843 35.6101 45.3843 33.353V24.7593C45.3843 23.6197 44.9316 22.5267 44.1258 21.7209C43.32 20.9151 42.227 20.4624 41.0874 20.4624C39.9478 20.4624 38.8549 20.9151 38.0491 21.7209C37.2433 22.5267 36.7906 23.6197 36.7906 24.7593" stroke="url(#paint0_linear_39_7118)" stroke-width="5.5" stroke-linecap="round" stroke-linejoin="round"/>
<path d="M36.7905 24.7593V22.1812C36.7905 21.0416 36.3378 19.9486 35.532 19.1428C34.7262 18.337 33.6333 17.8843 32.4937 17.8843C31.3541 17.8843 30.2611 18.337 29.4553 19.1428C28.6495 19.9486 28.1968 21.0416 28.1968 22.1812V23.0405" stroke="url(#paint1_linear_39_7118)" stroke-width="5.5" stroke-linecap="round" stroke-linejoin="round"/>
<defs>
<lineargradient id="paint0_linear_39_7118" x1="1.18015" y1="-13.2681" x2="180.782" y2="-13.2681" gradientUnits="userSpaceOnUse">
<stop stop-color="#FF0C00"/>
<stop offset="1" stop-color="#EEFF2D"/>
</lineargradient>
<lineargradient id="paint1_linear_39_7118" x1="26.9266" y1="15.3062" x2="67.0038" y2="15.3062" gradientUnits="userSpaceOnUse">
<stop stop-color="#FF0C00"/>
<stop offset="1" stop-color="#EEFF2D"/>
</lineargradient>
</defs>
</svg>
