<svg width="209" height="193" viewbox="0 0 209 193" fill="none" xmlns="http://www.w3.org/2000/svg">
<path d="M184.188 0.84375H24.8125C18.4744 0.851 12.398 3.37201 7.91624 7.85374C3.43451 12.3355 0.9135 18.4119 0.90625 24.75V136.312C0.9135 142.651 3.43451 148.727 7.91624 153.209C12.398 157.69 18.4744 160.212 24.8125 160.219H96.5312V176.156H72.625C70.5116 176.156 68.4847 176.996 66.9902 178.49C65.4958 179.985 64.6562 182.012 64.6562 184.125C64.6562 186.238 65.4958 188.265 66.9902 189.76C68.4847 191.254 70.5116 192.094 72.625 192.094H136.375C138.488 192.094 140.515 191.254 142.01 189.76C143.504 188.265 144.344 186.238 144.344 184.125C144.344 182.012 143.504 179.985 142.01 178.49C140.515 176.996 138.488 176.156 136.375 176.156H112.469V160.219H184.188C190.526 160.212 196.602 157.69 201.084 153.209C205.565 148.727 208.087 142.651 208.094 136.312V24.75C208.087 18.4119 205.565 12.3355 201.084 7.85374C196.602 3.37201 190.526 0.851 184.188 0.84375ZM184.188 144.281H24.8125C22.6998 144.279 20.6743 143.438 19.1804 141.945C17.6865 140.451 16.8462 138.425 16.8438 136.312V120.375H192.156V136.312C192.154 138.425 191.313 140.451 189.82 141.945C188.326 143.438 186.3 144.279 184.188 144.281Z" fill="#171515"/>
</svg>
