<svg width="57" height="57" viewbox="0 0 57 57" fill="none" xmlns="http://www.w3.org/2000/svg">
<path d="M35.5693 9.44678C38.536 10.2446 41.241 11.808 43.4133 13.9803C45.5855 16.1526 47.1489 18.8576 47.9468 21.8242" stroke="url(#paint0_linear_39_7128)" stroke-width="5.6" stroke-linecap="round" stroke-linejoin="round"/>
<path d="M20.926 28C22.7412 31.7112 25.7495 34.7058 29.4689 36.5041C29.741 36.6331 30.042 36.689 30.3423 36.6662C30.6426 36.6435 30.9318 36.543 31.1814 36.3746L36.658 32.7227C36.9002 32.5612 37.1789 32.4626 37.4688 32.436C37.7587 32.4094 38.0506 32.4555 38.3182 32.5702L48.5638 36.9611C48.9118 37.109 49.2024 37.3659 49.3917 37.6933C49.5811 38.0206 49.6589 38.4006 49.6134 38.776C49.2896 41.31 48.0532 43.6391 46.1358 45.3272C44.2184 47.0153 41.7514 47.9466 39.1968 47.9467C31.3066 47.9467 23.7396 44.8123 18.1604 39.2331C12.5811 33.6539 9.44678 26.0869 9.44678 18.1967C9.44691 15.6421 10.3782 13.1751 12.0663 11.2577C13.7543 9.34024 16.0834 8.10387 18.6174 7.78003C18.9928 7.7346 19.3728 7.8124 19.7002 8.00172C20.0275 8.19103 20.2845 8.4816 20.4323 8.82964L24.8271 19.0842C24.9408 19.3494 24.9871 19.6387 24.962 19.9261C24.9368 20.2136 24.8409 20.4904 24.6829 20.7319L21.0437 26.2924C20.8781 26.5426 20.7801 26.8314 20.7595 27.1307C20.7389 27.43 20.7962 27.7295 20.926 28V28Z" stroke="url(#paint1_linear_39_7128)" stroke-width="5.6" stroke-linecap="round" stroke-linejoin="round"/>
<path d="M33.3406 17.7643C34.8163 18.2312 36.1581 19.0462 37.2526 20.1407C38.3471 21.2352 39.1622 22.577 39.6291 24.0528" stroke="url(#paint2_linear_39_7128)" stroke-width="5.6" stroke-linecap="round" stroke-linejoin="round"/>
<defs>
<lineargradient id="paint0_linear_39_7128" x1="33.74" y1="4.80524" x2="91.4624" y2="4.80524" gradientUnits="userSpaceOnUse">
<stop stop-color="#FF0C00"/>
<stop offset="1" stop-color="#EEFF2D"/>
</lineargradient>
<lineargradient id="paint1_linear_39_7128" x1="3.50833" y1="-7.29984" x2="190.885" y2="-7.29984" gradientUnits="userSpaceOnUse">
<stop stop-color="#FF0C00"/>
<stop offset="1" stop-color="#EEFF2D"/>
</lineargradient>
<lineargradient id="paint2_linear_39_7128" x1="32.4111" y1="15.4061" x2="61.7378" y2="15.4061" gradientUnits="userSpaceOnUse">
<stop stop-color="#FF0C00"/>
<stop offset="1" stop-color="#EEFF2D"/>
</lineargradient>
</defs>
</svg>
